<svg width="421" height="688" viewBox="0 0 421 688" fill="none" xmlns="http://www.w3.org/2000/svg">
<g id="Cancer Constellation">
<g id="Star" filter="url(#filter0_f)">
<ellipse cx="122.5" cy="66" rx="19.5" ry="18" fill="white" fill-opacity="0.8"/>
</g>
<g id="Line 1" filter="url(#filter1_f)">
<line x1="123.484" y1="83.8744" x2="185.484" y2="322.874" stroke="white" stroke-opacity="0.9"/>
</g>
<g id="Star_2" filter="url(#filter2_f)">
<ellipse cx="191" cy="345" rx="21" ry="22" fill="white" fill-opacity="0.9"/>
</g>
<g id="Line 2" filter="url(#filter3_f)">
<line x1="201.768" y1="336.557" x2="342.768" y2="262.557" stroke="white" stroke-opacity="0.7"/>
</g>
<g id="Star_3" filter="url(#filter4_f)">
<ellipse cx="360.5" cy="255.5" rx="23.5" ry="21.5" fill="white" fill-opacity="0.8"/>
</g>
<g id="Line 3" filter="url(#filter5_f)">
<line x1="181.414" y1="359.281" x2="145.414" y2="412.281" stroke="white" stroke-opacity="0.5"/>
</g>
<g id="Star_4" filter="url(#filter6_f)">
<ellipse cx="140.5" cy="423" rx="17.5" ry="19" fill="#FF60EF" fill-opacity="0.85"/>
</g>
<g id="Line 4" filter="url(#filter7_f)">
<line x1="136.467" y1="435.177" x2="65.4674" y2="622.177" stroke="white" stroke-opacity="0.8"/>
</g>
<g id="Star_5" filter="url(#filter8_f)">
<ellipse cx="59" cy="634" rx="20" ry="19" fill="white" fill-opacity="0.7"/>
</g>
<g id="Vector 1" filter="url(#filter9_df)">
<path d="M113.553 52C110.2 56.4255 101.75 70.4966 106.33 76.2222C111.883 83.1636 118.384 80.4538 126.553 80C134.025 79.5848 138.184 67.2889 133.775 61.7778C132.855 60.628 133.965 57.1419 131.553 57C129.397 56.8732 128.145 56 126.053 56C122.661 56 119.24 54 115.553 54" stroke="#77FFF7" stroke-width="4" stroke-linecap="round" stroke-linejoin="round"/>
</g>
<g id="Vector 2" filter="url(#filter10_f)">
<path d="M352 241C347.652 243.717 340.321 248.231 340 254C339.779 257.987 339.146 264.369 343 266.778C345.236 268.175 350.491 273 353 273C358.149 273 361.104 271.327 365.556 270.056C370.135 268.747 371.978 264.817 375.5 262C377.322 260.543 374 252.326 374 249.5C374 237.286 360.21 241 351 241" stroke="#FFD1FA" stroke-width="8" stroke-linecap="round" stroke-linejoin="round"/>
</g>
<g id="Vector 3" filter="url(#filter11_f)">
<path d="M183 330C180.711 335.865 177 339.255 177 345.5C177 347.648 175.894 349.093 176 351C176.15 353.704 178.744 354.135 180.222 355.778C183.282 359.178 185.409 359 190.5 359C192.833 359 195.167 359 197.5 359C201.344 359 199.896 357.52 202.556 356C205.5 354.317 207 348.255 207 345C207 342.833 207 340.667 207 338.5C207 336.195 204.133 336.916 203 335.5C200.58 332.475 197.044 333.035 194.222 330.778C191.63 328.704 184.407 330 181 330" stroke="#61F6FF" stroke-width="21" stroke-linecap="round" stroke-linejoin="round"/>
</g>
<g id="Vector 4" filter="url(#filter12_f)">
<path d="M140 409C137.313 412.439 132.774 413.766 131.944 417.5C131.502 419.49 129.125 420.741 129 423C128.899 424.82 129 426.676 129 428.5C129 431.608 132.11 434 135.5 434C137.525 434 144.74 435.075 146 433.5C149.909 428.613 153 424.544 153 418C153 413.397 151.212 413 147 413C143.559 413 143.523 409.261 141 408" stroke="white" stroke-width="10" stroke-linecap="round" stroke-linejoin="round"/>
</g>
<g id="Vector 5" filter="url(#filter13_f)">
<path d="M52 624C49.0037 626.27 46.7133 628.726 44.5555 631.5C43.3153 633.095 43.4935 635.633 42.2222 637.222C41.2775 638.403 42.0294 641.508 43.5555 641.944C45.8369 642.596 45.6308 644.395 47.5555 644.944C51.3408 646.026 55.8076 647 60 647C65.6134 647 65.8531 644.256 70.4444 642.944C73.1742 642.164 70.5904 631.528 72.5 630C74.7039 628.237 68.4611 623.569 66.7778 622.222C65.5853 621.268 54.8805 621.399 54 622.5C51.5781 625.527 48.7915 627.417 47 631" stroke="white" stroke-width="22" stroke-linecap="round" stroke-linejoin="round"/>
</g>
</g>
<defs>
<filter id="filter0_f" x="83" y="28" width="79" height="76" filterUnits="userSpaceOnUse" color-interpolation-filters="sRGB">
<feFlood flood-opacity="0" result="BackgroundImageFix"/>
<feBlend mode="normal" in="SourceGraphic" in2="BackgroundImageFix" result="shape"/>
<feGaussianBlur stdDeviation="10" result="effect1_foregroundBlur"/>
</filter>
<filter id="filter1_f" x="119" y="79.7489" width="70.968" height="247.251" filterUnits="userSpaceOnUse" color-interpolation-filters="sRGB">
<feFlood flood-opacity="0" result="BackgroundImageFix"/>
<feBlend mode="normal" in="SourceGraphic" in2="BackgroundImageFix" result="shape"/>
<feGaussianBlur stdDeviation="2" result="effect1_foregroundBlur"/>
</filter>
<filter id="filter2_f" x="150" y="303" width="82" height="84" filterUnits="userSpaceOnUse" color-interpolation-filters="sRGB">
<feFlood flood-opacity="0" result="BackgroundImageFix"/>
<feBlend mode="normal" in="SourceGraphic" in2="BackgroundImageFix" result="shape"/>
<feGaussianBlur stdDeviation="10" result="effect1_foregroundBlur"/>
</filter>
<filter id="filter3_f" x="197.535" y="258.115" width="149.465" height="82.8855" filterUnits="userSpaceOnUse" color-interpolation-filters="sRGB">
<feFlood flood-opacity="0" result="BackgroundImageFix"/>
<feBlend mode="normal" in="SourceGraphic" in2="BackgroundImageFix" result="shape"/>
<feGaussianBlur stdDeviation="2" result="effect1_foregroundBlur"/>
</filter>
<filter id="filter4_f" x="317" y="214" width="87" height="83" filterUnits="userSpaceOnUse" color-interpolation-filters="sRGB">
<feFlood flood-opacity="0" result="BackgroundImageFix"/>
<feBlend mode="normal" in="SourceGraphic" in2="BackgroundImageFix" result="shape"/>
<feGaussianBlur stdDeviation="10" result="effect1_foregroundBlur"/>
</filter>
<filter id="filter5_f" x="141" y="355" width="44.8272" height="61.5619" filterUnits="userSpaceOnUse" color-interpolation-filters="sRGB">
<feFlood flood-opacity="0" result="BackgroundImageFix"/>
<feBlend mode="normal" in="SourceGraphic" in2="BackgroundImageFix" result="shape"/>
<feGaussianBlur stdDeviation="2" result="effect1_foregroundBlur"/>
</filter>
<filter id="filter6_f" x="103" y="384" width="75" height="78" filterUnits="userSpaceOnUse" color-interpolation-filters="sRGB">
<feFlood flood-opacity="0" result="BackgroundImageFix"/>
<feBlend mode="normal" in="SourceGraphic" in2="BackgroundImageFix" result="shape"/>
<feGaussianBlur stdDeviation="10" result="effect1_foregroundBlur"/>
</filter>
<filter id="filter7_f" x="61" y="431" width="79.9349" height="195.355" filterUnits="userSpaceOnUse" color-interpolation-filters="sRGB">
<feFlood flood-opacity="0" result="BackgroundImageFix"/>
<feBlend mode="normal" in="SourceGraphic" in2="BackgroundImageFix" result="shape"/>
<feGaussianBlur stdDeviation="2" result="effect1_foregroundBlur"/>
</filter>
<filter id="filter8_f" x="16" y="592" width="86" height="84" filterUnits="userSpaceOnUse" color-interpolation-filters="sRGB">
<feFlood flood-opacity="0" result="BackgroundImageFix"/>
<feBlend mode="normal" in="SourceGraphic" in2="BackgroundImageFix" result="shape"/>
<feGaussianBlur stdDeviation="11.5" result="effect1_foregroundBlur"/>
</filter>
<filter id="filter9_df" x="53.0003" y="-0.000106812" width="134.577" height="132.899" filterUnits="userSpaceOnUse" color-interpolation-filters="sRGB">
<feFlood flood-opacity="0" result="BackgroundImageFix"/>
<feColorMatrix in="SourceAlpha" type="matrix" values="0 0 0 0 0 0 0 0 0 0 0 0 0 0 0 0 0 0 127 0"/>
<feOffset dy="4"/>
<feGaussianBlur stdDeviation="10"/>
<feColorMatrix type="matrix" values="0 0 0 0 0.995833 0 0 0 0 0.983385 0 0 0 0 0.983385 0 0 0 0.6 0"/>
<feBlend mode="normal" in2="BackgroundImageFix" result="effect1_dropShadow"/>
<feBlend mode="normal" in="SourceGraphic" in2="effect1_dropShadow" result="shape"/>
<feGaussianBlur stdDeviation="25" result="effect2_foregroundBlur"/>
</filter>
<filter id="filter10_f" x="295.822" y="196.469" width="124.224" height="120.531" filterUnits="userSpaceOnUse" color-interpolation-filters="sRGB">
<feFlood flood-opacity="0" result="BackgroundImageFix"/>
<feBlend mode="normal" in="SourceGraphic" in2="BackgroundImageFix" result="shape"/>
<feGaussianBlur stdDeviation="20" result="effect1_foregroundBlur"/>
</filter>
<filter id="filter11_f" x="115.494" y="269.1" width="152.006" height="150.408" filterUnits="userSpaceOnUse" color-interpolation-filters="sRGB">
<feFlood flood-opacity="0" result="BackgroundImageFix"/>
<feBlend mode="normal" in="SourceGraphic" in2="BackgroundImageFix" result="shape"/>
<feGaussianBlur stdDeviation="25" result="effect1_foregroundBlur"/>
</filter>
<filter id="filter12_f" x="103.957" y="382.999" width="74.0433" height="76.3593" filterUnits="userSpaceOnUse" color-interpolation-filters="sRGB">
<feFlood flood-opacity="0" result="BackgroundImageFix"/>
<feBlend mode="normal" in="SourceGraphic" in2="BackgroundImageFix" result="shape"/>
<feGaussianBlur stdDeviation="10" result="effect1_foregroundBlur"/>
</filter>
<filter id="filter13_f" x="0.805038" y="580.583" width="113.161" height="107.417" filterUnits="userSpaceOnUse" color-interpolation-filters="sRGB">
<feFlood flood-opacity="0" result="BackgroundImageFix"/>
<feBlend mode="normal" in="SourceGraphic" in2="BackgroundImageFix" result="shape"/>
<feGaussianBlur stdDeviation="15" result="effect1_foregroundBlur"/>
</filter>
</defs>
</svg>
